<svg width="69" height="60" viewBox="0 0 69 60" version="1.1" xmlns="http://www.w3.org/2000/svg" xmlns:xlink="http://www.w3.org/1999/xlink">
<title>chat back arrow icon</title>
<desc>Created using Figma</desc>
<g id="Canvas" transform="translate(-2273 -29)">
<g id="chat back arrow icon">
<g id="end fillet">
<use xlink:href="#path0_fill" transform="translate(2334 55)" fill="#FF0000"/>
</g>
<g id="Arrow">
<use xlink:href="#path1_stroke" transform="matrix(-1 1.22465e-16 -1.22465e-16 -1 2338 59)" fill="#FF0000"/>
</g>
</g>
</g>
<defs>
<path id="path0_fill" d="M 8 4C 8 6.20914 6.20914 8 4 8C 1.79086 8 0 6.20914 0 4C 0 1.79086 1.79086 0 4 0C 6.20914 0 8 1.79086 8 4Z"/>
<path id="path1_stroke" d="M 63.8284 2.82843C 65.3905 1.26633 65.3905 -1.26633 63.8284 -2.82843L 38.3726 -28.2843C 36.8105 -29.8464 34.2778 -29.8464 32.7157 -28.2843C 31.1536 -26.7222 31.1536 -24.1895 32.7157 -22.6274L 55.3431 0L 32.7157 22.6274C 31.1536 24.1895 31.1536 26.7222 32.7157 28.2843C 34.2778 29.8464 36.8105 29.8464 38.3726 28.2843L 63.8284 2.82843ZM 0 4L 61 4L 61 -4L 0 -4L 0 4Z"/>
</defs>
</svg>
