<svg width="80" height="76" viewBox="0 0 80 76" version="1.1" xmlns="http://www.w3.org/2000/svg" xmlns:xlink="http://www.w3.org/1999/xlink">
<title>chat icon (inactive)</title>
<desc>Created using Figma</desc>
<g id="Canvas" transform="translate(-939 -18)">
<g id="chat icon (inactive)">
<g id="Ellipse">
<use xlink:href="#path0_fill" transform="translate(945 18)" fill="#C4C4C4"/>
</g>
<g id="Ellipse 2">
<use xlink:href="#path1_fill" transform="translate(957 50)" fill="#FFFFFF"/>
</g>
<g id="Ellipse 2.1">
<use xlink:href="#path1_fill" transform="translate(977 50)" fill="#FFFFFF"/>
</g>
<g id="Ellipse 2.2">
<use xlink:href="#path1_fill" transform="translate(997 50)" fill="#FFFFFF"/>
</g>
<g id="Polygon">
<use xlink:href="#path2_fill" transform="matrix(-0.700419 -0.713732 0.713732 -0.700419 950.231 95.8523)" fill="#C4C4C4"/>
</g>
</g>
</g>
<defs>
<path id="path0_fill" d="M 74 37C 74 57.4345 57.4345 74 37 74C 16.5655 74 0 57.4345 0 37C 0 16.5655 16.5655 0 37 0C 57.4345 0 74 16.5655 74 37Z"/>
<path id="path1_fill" d="M 10 5C 10 7.76142 7.76142 10 5 10C 2.23858 10 0 7.76142 0 5C 0 2.23858 2.23858 0 5 0C 7.76142 0 10 2.23858 10 5Z"/>
<path id="path2_fill" d="M 8.52356 2.56448C 8.84391 1.6896 10.0813 1.6896 10.4016 2.56448L 17.1654 21.0362C 17.4043 21.6888 16.9212 22.3801 16.2263 22.3801L 2.69884 22.3801C 2.00393 22.3801 1.52088 21.6888 1.75982 21.0362L 8.52356 2.56448Z"/>
</defs>
</svg>
