<svg width="51" height="51" viewBox="0 0 51 51" version="1.1" xmlns="http://www.w3.org/2000/svg" xmlns:xlink="http://www.w3.org/1999/xlink">
<title>new message icon</title>
<desc>Created using Figma</desc>
<g id="Canvas" transform="translate(-1432 -388)">
<g id="new message icon">
<g id="Ellipse">
<use xlink:href="#path0_fill" transform="translate(1432 388)" fill="#F6F7FB"/>
</g>
<g id="Ellipse 2">
<use xlink:href="#path1_fill" transform="translate(1438 394)" fill="#FF3B3B"/>
</g>
</g>
</g>
<defs>
<path id="path0_fill" d="M 51 25.5C 51 39.5833 39.5833 51 25.5 51C 11.4167 51 0 39.5833 0 25.5C 0 11.4167 11.4167 0 25.5 0C 39.5833 0 51 11.4167 51 25.5Z"/>
<path id="path1_fill" d="M 40 20C 40 31.0457 31.0457 40 20 40C 8.9543 40 0 31.0457 0 20C 0 8.9543 8.9543 0 20 0C 31.0457 0 40 8.9543 40 20Z"/>
</defs>
</svg>
